<?xml version="1.0" standalone="no"?>
<!DOCTYPE svg PUBLIC "-//W3C//DTD SVG 20010904//EN"
 "http://www.w3.org/TR/2001/REC-SVG-20010904/DTD/svg10.dtd">
<svg version="1.0" xmlns="http://www.w3.org/2000/svg"
 width="1921.000000pt" height="463.000000pt" viewBox="0 0 1921.000000 463.000000"
 preserveAspectRatio="xMidYMid meet">

<g transform="translate(0.000000,463.000000) scale(0.100000,-0.100000)"
fill="#000000" stroke="none">
<path d="M1560 3390 l0 -80 934 0 934 0 20 80 20 80 -954 0 -954 0 0 -80z"/>
<path d="M3970 3466 c0 -2 181 -177 402 -387 l401 -383 -71 -66 c-38 -36 -219
-207 -402 -380 l-331 -315 111 -3 111 -3 345 332 344 331 83 -76 c45 -41 201
-190 347 -330 l265 -255 115 0 115 0 -60 56 c-405 381 -745 708 -743 714 2 4
158 154 348 334 190 180 370 351 400 381 l55 54 -115 0 -115 -1 -343 -330
c-189 -182 -347 -329 -351 -327 -5 2 -163 150 -351 331 l-342 327 -109 0 c-60
0 -109 -2 -109 -4z"/>
<path d="M7149 3453 c-5 -10 -196 -355 -423 -768 l-412 -750 85 -3 c63 -2 88
1 94 10 4 7 175 318 379 691 204 372 374 677 377 677 3 0 177 -311 386 -690
l380 -690 88 0 88 0 -40 73 c-23 39 -213 386 -423 769 l-383 698 -92 0 c-78 0
-95 -3 -104 -17z"/>
<path d="M8660 2700 l0 -770 80 0 80 0 0 669 0 670 293 -221 c160 -122 323
-246 361 -275 69 -53 70 -53 142 -53 l73 0 348 266 c191 146 356 269 366 275
16 9 17 -25 17 -661 l0 -670 75 0 75 0 0 770 0 770 -73 0 -73 0 -395 -300
c-216 -165 -402 -300 -412 -300 -10 0 -196 135 -413 300 l-394 300 -75 0 -75
0 0 -770z"/>
<path d="M11030 3390 l0 -80 783 -2 c750 -3 784 -4 821 -22 50 -25 97 -72 122
-122 16 -33 19 -65 22 -207 3 -159 2 -170 -21 -220 -27 -59 -73 -108 -126
-134 -34 -17 -89 -18 -818 -21 l-783 -2 0 -325 0 -325 75 0 75 0 0 245 0 245
663 0 c386 0 691 5 732 10 178 26 321 165 354 344 14 77 14 265 0 342 -31 167
-150 296 -314 339 -51 13 -169 15 -822 15 l-763 0 0 -80z"/>
<path d="M13390 2700 l0 -770 935 0 934 0 11 43 c6 23 15 57 20 75 l8 32 -874
0 -874 0 0 695 0 695 -80 0 -80 0 0 -770z"/>
<path d="M15760 3390 l0 -80 933 0 933 0 17 73 c10 39 17 75 17 80 0 4 -427 7
-950 7 l-950 0 0 -80z"/>
<path d="M1567 2773 c-4 -3 -7 -195 -7 -425 l0 -418 934 0 934 0 16 65 c9 35
16 69 16 75 0 7 -277 11 -872 12 l-873 3 -3 268 -2 267 664 0 664 0 16 65 c9
35 16 71 16 80 0 13 -80 15 -748 15 -412 0 -752 -3 -755 -7z"/>
<path d="M15760 2355 l0 -425 933 0 934 0 12 53 c6 28 14 62 17 75 l6 22 -876
0 -876 0 0 270 0 270 663 0 663 0 17 73 c10 39 17 75 17 80 0 4 -340 7 -755 7
l-755 0 0 -425z"/>
</g>
</svg>
