<svg version="1.1" id="Layer_1" xmlns="http://www.w3.org/2000/svg" xmlns:xlink="http://www.w3.org/1999/xlink" x="0px" y="0px"
	 width="100%" viewBox="0 0 850 86" enable-background="new 0 0 850 86" xml:space="preserve">

<path opacity="1.000000" stroke="none" 
	d="
M804.984741,71.000000 
	C808.646301,70.999985 811.870850,71.375862 814.956970,70.883545 
	C817.523193,70.474167 820.321045,69.542450 822.318542,67.960869 
	C826.254883,64.844154 828.055908,60.724197 825.879578,55.557034 
	C824.020508,51.143047 819.590027,48.024487 814.430420,48.012527 
	C799.273682,47.977402 784.113342,47.803947 768.961243,48.070744 
	C759.284973,48.241119 750.835205,40.697071 750.019287,30.587818 
	C749.208801,20.546038 755.811707,11.862208 766.167725,11.164207 
	C780.853577,10.174368 795.616394,10.306408 810.347351,10.014915 
	C815.144592,9.919989 819.945312,10.000000 825.310120,10.000000 
	C824.811035,12.841479 824.397888,15.193452 823.904907,18.000000 
	C813.778076,18.000000 803.658569,18.000000 793.539062,18.000000 
	C786.043945,18.000000 778.548828,17.997290 771.053711,18.000711 
	C762.422791,18.004650 757.993774,21.926769 758.000000,29.552748 
	C758.005981,36.845345 762.769043,40.981571 771.270813,40.993912 
	C786.261047,41.015667 801.257263,41.256836 816.239319,40.906769 
	C825.713013,40.685402 833.006348,49.173214 833.958435,56.475132 
	C835.482666,68.165154 827.588684,77.571053 819.291870,77.809891 
	C799.281555,78.385918 779.243347,77.996658 758.946594,77.996658 
	C759.337158,76.072685 759.834106,73.624619 760.366882,71.000000 
	C775.203613,71.000000 789.845703,71.000000 804.984741,71.000000 
z"/>
<path opacity="1.000000" stroke="none" 
	d="
M295.267456,47.689884 
	C304.207275,58.507061 298.153503,77.459221 282.986877,77.937881 
	C264.088287,78.534317 245.174942,78.666817 226.267303,78.956528 
	C225.701736,78.965195 225.128784,78.491524 224.590118,78.256218 
	C225.900284,71.000046 225.900284,71.000015 232.647171,71.000008 
	C247.811905,70.999985 262.976624,70.992844 278.141357,71.002571 
	C287.857758,71.008804 293.140259,66.590775 290.975220,55.294945 
	C290.121277,50.839661 285.539276,48.023552 279.137146,48.010181 
	C263.972473,47.978504 248.807709,48.007099 233.642975,47.997292 
	C224.775833,47.991558 216.838562,40.704407 215.931137,32.495766 
	C214.526199,19.786755 223.305191,11.389380 231.167130,11.073982 
	C246.058533,10.476587 260.967590,10.305230 275.870453,10.015292 
	C280.846466,9.918483 285.825989,10.000000 290.845734,10.000000 
	C289.823700,17.999922 289.823700,17.999971 282.426514,17.999989 
	C267.095154,18.000023 251.763763,17.999226 236.432388,18.000311 
	C228.211151,18.000895 222.806824,22.182014 223.071014,28.885950 
	C223.354797,36.087208 227.064987,40.742737 236.255264,40.920410 
	C251.414322,41.213482 266.583221,40.982826 281.747894,41.009167 
	C287.168823,41.018585 291.759583,42.860020 295.267456,47.689884 
z"/>
<path opacity="1.000000" stroke="none" 
	d="
M475.238800,68.737625 
	C470.610687,65.434502 466.336365,62.242756 461.830109,59.421444 
	C459.905090,58.216206 457.512360,57.164291 455.304565,57.107086 
	C445.685608,56.857841 436.056488,57.000000 425.999939,57.000000 
	C425.999939,63.131199 425.865356,68.919571 426.052765,74.697495 
	C426.157471,77.925644 425.073120,79.119286 421.760712,79.088593 
	C418.462677,79.058022 417.930756,77.483635 417.963959,74.721786 
	C418.064087,66.391716 418.000061,58.059666 418.000061,49.234844 
	C419.451385,49.155331 420.868927,49.011173 422.286560,49.010052 
	C441.284149,48.995037 460.281738,49.004543 479.279327,48.997929 
	C487.735382,48.994984 495.319458,41.989132 494.866608,33.640278 
	C494.450012,25.960064 489.411255,18.200842 479.462128,18.076200 
	C459.159119,17.821848 438.850677,18.000019 418.272766,18.000019 
	C418.272766,15.357236 418.272766,12.950895 418.272766,10.000000 
	C420.485992,10.000000 422.761566,9.999999 425.037109,9.999999 
	C441.868317,10.000000 458.703796,9.783625 475.528381,10.117592 
	C481.401794,10.234179 487.309967,10.862388 492.514221,14.776503 
	C499.214203,19.815552 503.755096,29.522524 501.933472,37.886990 
	C499.917419,47.144184 494.416779,53.562576 485.067200,55.910168 
	C481.021393,56.926037 476.729340,56.961361 472.478149,57.450256 
	C481.510864,64.093300 490.637146,70.805153 500.473724,78.039375 
	C495.334229,79.283287 490.968994,80.066879 486.863739,77.289009 
	C482.982605,74.662788 479.279877,71.772911 475.238800,68.737625 
z"/>
<path opacity="1.000000" stroke="none" 
	d="
M200.000000,28.000946 
	C200.000000,39.160786 200.010849,49.820957 199.996643,60.481091 
	C199.984879,69.297630 193.557022,77.406990 184.862915,77.859253 
	C168.991791,78.684853 153.044952,79.427910 137.189682,78.766785 
	C123.579445,78.199287 115.944359,72.285637 115.992271,55.614613 
	C116.030563,42.289532 115.991554,28.964241 116.006966,15.639066 
	C116.010139,12.897532 115.198303,9.925544 119.895012,9.886563 
	C124.408646,9.849104 124.023926,12.495139 124.016472,15.431023 
	C123.980080,29.755510 124.292831,44.088722 123.873505,58.401016 
	C123.671127,65.308685 129.617950,71.356781 136.721115,71.132332 
	C150.865021,70.685410 165.032959,71.005600 179.190979,70.998016 
	C188.444794,70.993050 192.996613,66.359314 192.998947,56.954304 
	C193.002792,41.487568 193.000000,26.020836 193.000000,10.277620 
	C195.301041,10.277620 197.372543,10.277620 200.000000,10.277620 
	C200.000000,15.956217 200.000000,21.728737 200.000000,28.000946 
z"/>
<path opacity="1.000000" stroke="none" 
	d="
M43.280106,33.278301 
	C47.148022,26.365242 50.765320,19.742434 54.401165,13.129823 
	C56.847992,8.679708 63.499226,8.355625 65.934258,12.728108 
	C73.672989,26.624212 81.276611,40.595627 88.919144,54.545219 
	C92.464043,61.015587 96.003548,67.489227 99.485939,73.993271 
	C100.225357,75.374275 100.705635,76.894035 101.308083,78.356590 
	C95.314865,80.738152 92.386353,77.664490 90.007271,73.219994 
	C81.673126,57.650513 73.303879,42.099686 64.892609,26.571756 
	C63.469002,23.943653 61.772297,21.463480 60.033665,18.642181 
	C55.615673,26.473114 51.313156,33.932686 47.170872,41.480198 
	C40.756989,53.166714 34.684422,65.050941 27.884686,76.505585 
	C26.681227,78.532898 22.639826,78.875542 19.908943,79.996140 
	C19.460188,79.432671 19.011433,78.869202 18.562679,78.305733 
	C26.720911,63.394787 34.879143,48.483841 43.280106,33.278301 
z"/>
<path opacity="1.000000" stroke="none" 
	d="
M576.999023,54.986641 
	C570.420898,42.808582 563.877136,31.010086 556.893982,18.419506 
	C553.504456,24.398211 550.211121,30.095631 547.023804,35.851761 
	C539.711548,49.057384 532.484741,62.310429 525.147888,75.502319 
	C523.065063,79.247231 522.946045,79.181030 515.533691,78.712669 
	C516.821533,75.794342 517.807068,73.036018 519.196350,70.498856 
	C527.756592,54.866203 536.403564,39.281040 545.032776,23.686230 
	C546.667419,20.732052 548.080444,17.599352 550.103455,14.934446 
	C551.598328,12.965210 553.679810,11.022350 555.922546,10.131177 
	C559.968506,8.523425 562.219421,11.569966 563.930603,14.637225 
	C567.918152,21.784971 571.728333,29.031361 575.668091,36.206081 
	C583.008057,49.572929 590.401123,62.910614 597.715942,76.291145 
	C598.067017,76.933342 597.878479,77.870529 597.939331,78.646240 
	C592.476196,80.020561 589.137390,78.592224 586.831665,73.071716 
	C584.247620,66.885010 580.355957,61.244427 576.999023,54.986641 
z"/>
<path opacity="1.000000" stroke="none" 
	d="
M359.000000,10.000000 
	C371.618622,10.000000 383.737244,10.000000 395.915070,10.000000 
	C394.671082,17.999939 394.671082,17.999969 387.361481,17.999992 
	C377.739594,18.000023 368.117676,18.000000 358.000000,18.000000 
	C358.000000,27.382719 358.000000,36.478859 358.000000,45.575001 
	C358.000000,55.228664 357.917725,64.883446 358.048187,74.535347 
	C358.089355,77.580963 357.408356,79.089188 353.934113,79.097137 
	C350.312225,79.105415 349.950165,77.303009 349.961792,74.403618 
	C350.036621,55.787113 350.000031,37.170155 350.000031,18.198269 
	C337.356964,18.198269 324.943298,18.198269 312.299438,18.198269 
	C312.981140,15.338198 313.570038,12.867436 314.253510,10.000000 
	C328.936157,10.000000 343.718079,10.000000 359.000000,10.000000 
z"/>
<path opacity="1.000000" stroke="none" 
	d="
M622.000000,61.961147 
	C622.000000,65.103653 622.000000,67.751373 622.000000,70.773209 
	C647.599548,70.773209 673.013306,70.773209 698.722900,70.773209 
	C697.980469,73.753456 697.343628,76.310112 696.701294,78.888603 
	C669.483765,78.888603 642.527161,78.888603 615.285339,78.888603 
	C615.285339,56.046490 615.285339,33.312901 615.285339,10.289111 
	C617.287231,10.289111 619.357178,10.289111 622.000000,10.289111 
	C622.000000,27.266909 622.000000,44.366634 622.000000,61.961147 
z"/>
<path opacity="1.000000" stroke="none" 
	d="
M728.000000,58.999203 
	C727.999756,64.828232 727.904175,70.159836 728.036377,75.485771 
	C728.111633,78.516685 726.535217,79.041756 723.978333,79.050018 
	C721.380432,79.058403 719.952209,78.432793 719.962280,75.442841 
	C720.033997,54.147644 720.000549,32.852085 720.000549,11.598675 
	C727.797974,10.259843 727.999817,10.428004 727.999939,18.030607 
	C728.000183,31.520205 728.000000,45.009800 728.000000,58.999203 
z"/>
</svg>