<?xml version="1.0" standalone="no"?>
<!DOCTYPE svg PUBLIC "-//W3C//DTD SVG 20010904//EN"
 "http://www.w3.org/TR/2001/REC-SVG-20010904/DTD/svg10.dtd">
<svg version="1.0" xmlns="http://www.w3.org/2000/svg"
 width="410.000000pt" height="50.000000pt" viewBox="0 0 410.000000 50.000000"
 preserveAspectRatio="xMidYMid meet">

<g transform="translate(0.000000,50.000000) scale(0.100000,-0.100000)"
fill="#000000" stroke="none">
<path d="M735 318 c-50 -48 -101 -91 -115 -97 -22 -9 -20 -10 20 -10 31 -1 41
2 30 9 -12 7 -12 12 4 29 14 16 31 21 68 21 44 0 48 -2 48 -24 0 -18 -7 -26
-22 -29 -13 -2 4 -4 37 -4 33 -1 52 1 43 4 -14 4 -18 19 -20 96 l-3 92 -90
-87z m65 2 l0 -40 -47 0 -48 1 45 39 c25 22 46 40 48 40 1 0 2 -18 2 -40z"/>
<path d="M162 383 c15 -4 13 -14 -22 -83 -29 -58 -46 -80 -62 -83 -13 -2 27
-5 87 -5 106 -1 111 -1 128 24 l18 25 -33 -21 c-23 -14 -50 -20 -91 -20 l-58
0 22 40 c19 34 28 40 56 40 20 0 33 -5 33 -12 0 -8 7 -5 15 6 18 24 20 45 3
28 -7 -7 -27 -12 -45 -12 l-33 0 17 35 c16 34 18 35 75 35 51 0 60 -3 68 -22
5 -13 9 -18 9 -11 1 6 4 18 7 27 5 14 -7 16 -102 15 -60 -1 -101 -3 -92 -6z"/>
<path d="M421 383 c14 -3 79 -130 79 -154 0 -4 -8 -10 -17 -12 -10 -3 9 -5 42
-4 33 0 50 2 39 4 -24 5 -61 84 -48 104 4 8 3 9 -4 5 -8 -4 -16 3 -22 19 -13
34 -13 33 8 38 9 3 -8 5 -38 5 -30 0 -48 -2 -39 -5z"/>
<path d="M566 379 c4 -7 -4 -20 -17 -31 -20 -17 -18 -16 14 2 20 12 50 26 65
30 23 7 20 8 -21 9 -34 1 -46 -2 -41 -10z"/>
<path d="M983 383 c9 -2 17 -9 17 -14 0 -6 5 -7 10 -4 6 4 10 -23 10 -74 0
-45 4 -81 8 -81 4 0 24 17 43 37 22 25 24 29 7 14 l-28 -24 0 76 0 77 -42 -1
c-24 -1 -35 -3 -25 -6z"/>
<path d="M1175 348 l-40 -43 39 35 39 35 -39 -75 c-29 -54 -46 -76 -64 -81
-16 -5 -4 -7 35 -7 33 0 52 2 43 5 -24 6 -23 7 20 88 26 49 44 71 62 76 20 6
18 7 -15 8 -36 1 -46 -4 -80 -41z"/>
<path d="M1333 383 c23 -6 22 -7 -21 -88 -26 -48 -46 -71 -63 -76 -15 -5 -2
-7 36 -7 33 0 52 2 43 5 -22 5 -22 7 -3 43 14 27 20 30 66 30 92 0 165 60 110
90 -11 5 -57 9 -103 9 -46 -1 -75 -3 -65 -6z m146 -12 c16 -11 0 -45 -29 -61
-20 -11 -100 -14 -100 -4 0 4 9 22 21 40 17 29 26 34 57 34 20 0 43 -4 51 -9z"/>
<path d="M1592 383 c15 -4 13 -14 -22 -83 -29 -58 -46 -80 -62 -83 -13 -2 21
-5 74 -6 l97 -1 22 33 23 32 -27 -24 c-20 -18 -42 -26 -83 -29 l-55 -5 43 81
c37 70 47 81 73 85 17 2 1 4 -35 4 -36 0 -57 -1 -48 -4z"/>
<path d="M1823 383 c24 -6 22 -16 -20 -94 -29 -51 -44 -69 -63 -72 -14 -3 26
-4 89 -3 l113 1 27 35 26 35 -38 -32 c-33 -29 -44 -33 -98 -33 l-59 0 20 40
c18 35 25 40 54 40 19 0 36 -5 38 -11 2 -6 10 2 17 17 10 23 10 27 0 17 -14
-14 -83 -18 -77 -5 31 64 29 62 83 62 35 0 57 -5 65 -15 11 -13 15 -13 21 -3
5 7 9 16 9 21 0 4 -51 6 -112 6 -62 -1 -105 -3 -95 -6z"/>
<path d="M958 288 c-23 -44 -41 -64 -58 -69 -18 -5 -10 -7 25 -7 28 0 42 2 33
5 -23 6 -23 3 12 73 40 79 30 77 -12 -2z"/>
<path d="M387 244 c-3 -3 -23 -12 -44 -19 l-38 -14 45 -1 c39 0 46 3 46 20 0
22 0 22 -9 14z"/>
<path d="M2418 73 c6 -2 12 -20 12 -39 0 -20 4 -33 10 -29 5 3 7 19 3 35 -5
28 -3 30 25 30 34 0 50 -16 33 -33 -12 -12 3 -37 23 -37 6 0 5 4 -3 9 -12 8
-12 12 -2 25 23 27 -4 46 -63 45 -28 0 -45 -3 -38 -6z"/>
<path d="M2577 62 c-19 -20 -23 -62 -7 -62 6 0 10 10 10 22 0 12 7 30 17 40 9
10 12 18 6 18 -5 0 -17 -8 -26 -18z"/>
<path d="M2664 58 c9 -12 16 -30 16 -40 0 -10 5 -18 10 -18 6 0 10 8 10 18 0
21 -27 62 -41 62 -6 0 -3 -10 5 -22z"/>
<path d="M2721 63 c0 -11 3 -13 6 -5 2 6 16 12 29 12 21 0 24 -5 24 -35 0 -19
5 -35 10 -35 6 0 10 16 10 36 0 33 2 36 25 32 14 -3 25 -1 25 3 0 5 -29 9 -65
9 -56 0 -65 -3 -64 -17z"/>
<path d="M2871 58 c1 -17 2 -19 6 -5 3 10 14 17 29 17 21 0 24 -5 24 -35 0
-19 5 -35 10 -35 6 0 10 16 10 35 0 28 4 35 20 35 10 0 24 -8 30 -17 11 -17
11 -17 6 0 -3 10 -6 21 -6 23 0 2 -29 4 -65 4 -61 0 -65 -1 -64 -22z"/>
<path d="M3047 62 c-19 -20 -23 -62 -7 -62 6 0 10 11 10 24 0 14 7 32 16 40 8
9 11 16 6 16 -5 0 -16 -8 -25 -18z"/>
<path d="M3137 49 c8 -16 12 -33 8 -39 -3 -5 1 -10 9 -10 9 0 16 4 16 9 0 21
-19 59 -33 64 -13 5 -13 2 0 -24z"/>
<path d="M3203 69 c9 -5 24 -24 33 -40 21 -42 28 -31 9 14 -11 27 -21 37 -38
37 -20 -1 -20 -2 -4 -11z"/>
<path d="M3327 43 c8 -50 13 -54 13 -10 0 19 6 38 13 40 6 3 2 6 -10 6 -20 1
-21 -3 -16 -36z"/>
<path d="M3451 58 c1 -17 2 -19 6 -5 3 10 14 17 29 17 21 0 24 -5 24 -35 0
-19 5 -35 10 -35 6 0 10 16 10 35 0 28 4 35 20 35 10 0 24 -8 30 -17 11 -17
11 -17 6 0 -3 10 -6 21 -6 23 0 2 -29 4 -65 4 -61 0 -65 -1 -64 -22z"/>
<path d="M3618 40 c5 -50 22 -53 22 -4 0 36 0 36 40 32 22 -2 40 0 40 4 0 5
-24 8 -53 8 l-53 0 4 -40z"/>
<path d="M3781 50 c17 -16 28 -33 25 -38 -2 -4 4 -8 14 -9 12 -1 16 4 13 16
-3 12 5 26 23 40 25 20 25 21 5 21 -12 0 -21 -6 -21 -14 0 -8 -5 -18 -10 -21
-13 -8 -42 14 -34 26 3 5 -6 9 -20 9 l-24 0 29 -30z"/>
<path d="M3910 71 c0 -4 11 -6 25 -3 23 4 25 1 25 -32 0 -49 17 -46 22 4 l4
40 -38 0 c-21 0 -38 -4 -38 -9z"/>
<path d="M3676 32 c-2 -4 -1 -14 5 -22 7 -12 9 -10 9 8 0 23 -5 28 -14 14z"/>
</g>
</svg>
